<svg width="16" height="16" viewBox="0 0 16 16" fill="none" xmlns="http://www.w3.org/2000/svg">
<path d="M4.66699 4.66636V3.33302C4.667 2.94694 4.77876 2.56912 4.98877 2.24515C5.19878 1.92119 5.49807 1.66493 5.85052 1.50732C6.20296 1.34971 6.59349 1.29747 6.97497 1.35692C7.35644 1.41638 7.71256 1.58497 8.00033 1.84236C8.28809 1.58497 8.64421 1.41638 9.02568 1.35692C9.40716 1.29747 9.79769 1.34971 10.1501 1.50732C10.5026 1.66493 10.8019 1.92119 11.0119 2.24515C11.2219 2.56912 11.3337 2.94694 11.3337 3.33302V4.66636H12.3337C12.5989 4.66636 12.8532 4.77171 13.0408 4.95925C13.2283 5.14679 13.3337 5.40114 13.3337 5.66636V12.3364C13.3337 12.9543 13.0882 13.547 12.6512 13.9839C12.2143 14.4209 11.6216 14.6664 11.0037 14.6664H5.33366C4.62641 14.6664 3.94814 14.3854 3.44804 13.8853C2.94794 13.3852 2.66699 12.7069 2.66699 11.9997V5.66636C2.66699 5.40114 2.77235 5.14679 2.95989 4.95925C3.14742 4.77171 3.40178 4.66636 3.66699 4.66636H4.66699ZM9.09033 13.6664C8.81837 13.2762 8.67291 12.8119 8.67366 12.3364V5.66636H3.66699V11.9997C3.66699 12.2186 3.7101 12.4353 3.79386 12.6375C3.87762 12.8397 4.00038 13.0234 4.15515 13.1782C4.30991 13.333 4.49364 13.4557 4.69585 13.5395C4.89806 13.6232 5.11479 13.6664 5.33366 13.6664H9.09033ZM7.66699 4.66636V3.33302C7.66699 3.06781 7.56164 2.81345 7.3741 2.62592C7.18656 2.43838 6.93221 2.33302 6.66699 2.33302C6.40178 2.33302 6.14742 2.43838 5.95989 2.62592C5.77235 2.81345 5.66699 3.06781 5.66699 3.33302V4.66636H7.66699ZM8.66699 4.66636H10.3337V3.33302C10.3337 3.12718 10.2702 2.92635 10.1518 2.75793C10.0335 2.58952 9.86601 2.46174 9.67233 2.39202C9.47865 2.32231 9.26817 2.31407 9.06963 2.36841C8.8711 2.42276 8.69416 2.53705 8.56299 2.69569C8.63033 2.89569 8.66699 3.11036 8.66699 3.33302V4.66636ZM9.67366 12.3364C9.67366 12.6891 9.81378 13.0274 10.0632 13.2768C10.3126 13.5262 10.6509 13.6664 11.0037 13.6664C11.3564 13.6664 11.6947 13.5262 11.9441 13.2768C12.1935 13.0274 12.3337 12.6891 12.3337 12.3364V5.66636H9.67366V12.3364Z" fill="white"/>
</svg>
